<svg width="32" height="32" viewBox="0 0 32 32" fill="none" xmlns="http://www.w3.org/2000/svg">
<g clip-path="url(#clip0_373_10434)">
<path d="M12.5734 18.8197C11.7984 19.3394 10.7945 19.2951 10.0725 18.7506C9.73246 18.494 9.5547 18.1871 9.53223 18.1582L9.35416 22.4144L6.40676 29.568C6.03741 30.4646 6.4647 31.4907 7.36128 31.8601C8.26342 32.2319 9.28639 31.7964 9.65343 30.9056L12.7187 23.4658C12.7967 23.2765 12.841 23.075 12.8495 22.8704L13.0366 18.4014C12.9049 18.5605 12.7497 18.7015 12.5734 18.8197Z" fill="#EE9C2F"/>
<path d="M16.1299 6.10841C17.8167 6.10841 19.1841 4.74099 19.1841 3.0542C19.1841 1.36741 17.8167 0 16.1299 0C14.4431 0 13.0757 1.36741 13.0757 3.0542C13.0757 4.74099 14.4431 6.10841 16.1299 6.10841Z" fill="#EE9C2F"/>
<path d="M24.3883 15.0942C24.3354 14.8659 24.2243 14.6479 24.0512 14.4655L20.3136 10.524L18.1307 6.46236C17.5493 6.82458 16.8638 7.03463 16.1299 7.03463C14.4836 7.03463 13.0793 5.98082 12.5547 4.51253C11.4601 4.52279 11.3305 4.48744 11.0246 4.55064C10.4136 4.4815 9.8057 4.81838 9.55811 5.41468C9.29368 6.0514 7.16771 11.1707 6.91299 11.7841C6.73147 12.2212 6.77996 12.7212 7.04464 13.1159L10.1956 17.8151C10.6306 18.4641 11.5121 18.6365 12.1594 18.2034C12.1597 18.2031 12.1602 18.2029 12.1605 18.2026C12.8078 17.7686 12.9852 16.8896 12.5481 16.2378L9.82003 12.1692L10.9465 9.45675L10.5933 11.9913L13.1639 15.8249C13.4314 16.224 13.5555 16.6899 13.525 17.1615H13.7097L15.6641 22.49L17.0336 30.5304C17.1966 31.4868 18.1037 32.1291 19.0592 31.9663C20.0151 31.8035 20.658 30.8966 20.4952 29.9407L19.0986 21.7417C19.0807 21.6361 19.053 21.5325 19.0162 21.4319L17.3679 16.9378V10.7938L18.0017 11.973C18.0588 12.0794 18.1299 12.1777 18.213 12.2653L21.7433 15.9881C21.5534 16.3076 21.444 16.6802 21.444 17.0781V31.3817C21.444 31.7229 21.7206 31.9995 22.0618 31.9995C22.403 31.9995 22.6796 31.7229 22.6796 31.3817V17.0781C22.6796 16.9531 22.7051 16.834 22.7511 16.7257C22.8539 16.7498 22.9588 16.7634 23.0639 16.7634C23.4374 16.7634 23.8011 16.6129 24.0711 16.3157C24.3227 16.4767 24.4902 16.7579 24.4902 17.0781V19.0324C24.4902 19.3736 24.7668 19.6502 25.108 19.6502C25.4492 19.6502 25.7258 19.3736 25.7258 19.0324V17.0781C25.7256 16.1817 25.1716 15.4127 24.3883 15.0942Z" fill="#EE9C2F"/>
</g>
<defs>
<clipPath id="clip0_373_10434">
<rect width="32" height="32" fill="white"/>
</clipPath>
</defs>
</svg>
