<svg width="45" height="45" viewBox="0 0 45 45" fill="none" xmlns="http://www.w3.org/2000/svg">
<circle cx="22.5" cy="22.5" r="22.5" fill="#F7F7F7"/>
<path d="M36.5624 22.8375C36.5624 21.85 36.4758 20.9125 36.3274 20H22.3467V25.6375H30.3515C29.9928 27.4875 28.9411 29.05 27.3822 30.1125V33.8625H32.1579C34.954 31.25 36.5624 27.4 36.5624 22.8375Z" fill="#4285F4"/>
<path d="M22.3467 37.5008C26.3553 37.5008 29.7082 36.1508 32.1579 33.8633L27.3822 30.1133C26.046 31.0133 24.351 31.5633 22.3467 31.5633C18.4741 31.5633 15.1955 28.9258 14.0201 25.3633H9.09595V29.2258C11.5333 34.1258 16.5441 37.5008 22.3467 37.5008Z" fill="#34A853"/>
<path d="M14.0202 25.3629C13.7109 24.4629 13.55 23.5004 13.55 22.5004C13.55 21.5004 13.7233 20.5379 14.0202 19.6379V15.7754H9.09602C8.0815 17.8004 7.5 20.0754 7.5 22.5004C7.5 24.9254 8.0815 27.2004 9.09602 29.2254L14.0202 25.3629Z" fill="#FBBC05"/>
<path d="M22.3467 13.4375C24.5366 13.4375 26.4914 14.2 28.0379 15.6875L32.2692 11.4125C29.7082 8.9875 26.3553 7.5 22.3467 7.5C16.5441 7.5 11.5333 10.875 9.09595 15.775L14.0201 19.6375C15.1955 16.075 18.4741 13.4375 22.3467 13.4375Z" fill="#EA4335"/>
</svg>
